<?xml version="1.0" encoding="UTF-8" standalone="no"?>
<!-- Created with Inkscape (http://www.inkscape.org/) -->

<svg
   version="1.1"
   id="svg1"
   width="1024"
   height="1024"
   viewBox="0 0 1024 1024"
   xmlns="http://www.w3.org/2000/svg"
   xmlns:svg="http://www.w3.org/2000/svg">
  <defs
     id="defs1" />
  <g
     id="g1">
    <path
       style="fill:#113c67;stroke:none"
       d="m 486.19991,74.948911 c -27.23083,3.57544 -54.22299,5.42816 -81,12.4599 -76.23267,20.018979 -145.70349,59.986079 -201.98534,115.155089 -37.67851,36.93353 -69.33093,82.57824 -90.43904,130.96063 -27.856362,63.85022 -43.277192,134.03619 -38.486108,204 4.093124,59.77155 19.61525,119.61566 47.168968,173 84.42722,163.57462 266.133,260.73042 448.74152,236.71842 202.95135,-26.687 370.95673,-205.09226 379.96063,-410.71842 9.2414,-211.05017 -136.70953,-407.27039 -344.96063,-452.209899 -37.67603,-8.13031 -80.44086,-14.42858 -119,-9.36572 m 21,11.57562 c 0.0179,27.064819 6.56445,53.651549 12,79.999999 -44.3671,15.04883 -85.37863,28.09583 -123,57.80402 -13.08496,10.3327 -25.24158,21.38134 -36.99924,33.19598 -2.98092,2.99536 -8.38714,11.79321 -13.00461,11.79321 -6.5668,0 -14.98846,-13.39483 -19.08566,-17.79321 -17.24505,-18.51288 -34.12936,-37.18182 -49.90664,-57 -3.58155,-4.49884 -19.14124,-19.98737 -14.62809,-25.53546 4.36804,-5.36969 12.789,-9.6344 18.62424,-13.27167 12.78979,-7.97229 25.51089,-15.69519 39,-22.43976 57.94815,-28.97406 121.90436,-46.753109 187,-46.753109 m 236,108.999999 c -26.51843,-7.63916 -50.54456,-21.51154 -78,-27.57562 -30.44489,-6.72437 -61.83197,-9.74976 -93,-8.38501 -14.74182,0.64551 -29.31036,4.33001 -44,4.96063 -5.37067,-26.03375 -11,-51.2796 -11,-77.999999 64.18005,0 127.81,17.158139 185,45.753109 13.76862,6.88428 26.95941,14.49073 40,22.67127 3.9165,2.45691 11.98407,6.2605 13.75928,10.76007 2.60229,6.59595 -10.74817,22.83423 -12.75928,29.81555 m -20,98 c -25.52087,0 -51.20349,4.86011 -75,14.20294 -8.90656,3.49683 -17.58417,7.54334 -26,12.10571 -3.02252,1.63855 -7.31464,5.55475 -10.90973,5.38886 -3.5404,-0.16339 -6.10101,-5.21533 -7.96374,-7.69751 -6.11676,-8.15082 -11.80866,-16.52246 -17.45984,-25 -23.33844,-35.0108 -46.06171,-77.42181 -54.66669,-119 17.04315,-1.34711 33.854,-4.56537 51,-4.98535 36.46033,-0.89313 73.14532,5.20532 108,15.70526 11.96246,3.6037 23.52972,8.36224 35,13.28088 3.39978,1.45789 10.90479,3.56665 12.30322,7.38965 2.16254,5.91199 -5.85254,21.3006 -7.42975,27.60956 -4.992,19.96808 -6.87347,40.47363 -6.87347,61 m 188,72 h -1 c -38.51764,-65.9928 -87.5116,-131.62354 -159,-165 1.34436,-5.65991 8.33588,-26.33551 15.10419,-26.88348 4.57843,-0.37067 10.61139,6.4508 13.89581,9.08331 11.95398,9.58118 23.17566,19.97516 34,30.80017 31.69196,31.69409 58.21313,68.93256 78.24689,109 6.836,13.67194 14.70764,28.20892 18.75311,43 m -309,-33 -29,24 c 5.91846,0 11.02826,0.42786 16,-3.30481 4.50891,-3.38519 12.80066,-13.43402 18.98535,-12.67285 5.36817,0.6607 9.28613,9.50067 13.05402,12.82953 4.12048,3.64038 8.81134,3.14813 13.96063,3.14813 l -19,-23 c 33.63623,-18.65228 69.11145,-31 108,-31 0.48541,23.51837 6.83185,57.09052 19.96912,76.98535 4.41412,6.68463 12.35424,11.38495 18.03088,17.01465 -15.8504,-30.12457 -24.74292,-60.31561 -29,-94 62.85382,1.2973 123.9682,35.22455 161.37347,85 12.23774,16.28485 24.86841,35.92139 29.62653,56 -10.01135,-7.36853 -17.65717,-17.71283 -28,-25.09027 -22.71338,-16.20117 -51.46887,-23.13812 -79,-19.62421 -10.74908,1.37195 -21.03125,4.57691 -31,8.72608 -2.83435,1.17968 -8.55255,2.82617 -9.47375,6.20135 -0.70545,2.5846 1.74835,6.30884 2.47375,8.78705 11.49725,-11.5058 33.3869,-14.99896 49,-15 43.21899,-0.003 82.53754,22.70844 100.68829,63 5.43592,12.06677 6.31324,24.4115 9.31171,37 -65.03571,-0.0432 -116.20135,-39.58777 -158,-85 3.12659,7.62091 5.29956,17.16974 9.85339,24 5.1988,7.79761 13.99683,14.13422 21.14661,20.07947 20.15155,16.75659 46.11237,33.9284 72,39.92053 v 1 h -95 l -2,10 h 75 v 1 c -31.03735,4.17957 -70.81995,19.883 -97,36.96606 -9.00214,5.87409 -15.79254,14.732 -25,20.59803 -11.12585,7.08813 -23.82605,10.1521 -35,16.65661 -10.40466,6.05664 -19.78217,15.16504 -29,22.85956 -11.57385,9.6612 -22.34656,20.26221 -33,30.91974 -6.71484,6.71741 -12.96484,12.05029 -13,22 -12.42255,0.14673 -13.99585,17.11353 -24.03937,17.88348 -4.63983,0.35572 -10.67553,-6.41937 -13.96063,-9.13348 -7.78021,-6.42798 -11.9425,-8.75 -22,-8.75 6.72888,6.72894 13.44781,13.29388 21,19.11267 2.53204,1.95093 7.51941,4.44043 7.97766,7.9776 0.52918,4.08472 -4.63605,8.89325 -6.82562,11.90973 -7.00678,9.65271 -13.61701,19.77417 -19.75238,30 -19.9831,33.30603 -39.65875,70.87252 -48.39966,109.00002 -11.55197,-0.9436 -23.07968,-5.6799 -34,-9.3333 -38.34775,-12.8294 -73.4491,-35.07 -104,-61.24619 -12.0535,-10.32751 -31.16254,-25.35266 -37,-40.42053 27.53986,-20.96497 52.74701,-50.45264 84,-66 v -1 c -25.50656,0 -46.99878,24.54883 -66,40.25 -5.20819,4.30365 -16.92221,18.90546 -23.96063,18.58258 -5.17908,-0.23761 -10.48059,-11.01251 -13.03861,-14.83258 -5.86187,-8.75403 -11.66836,-17.73322 -16.69211,-27 -2.52664,-4.66064 -4.48593,-12.00269 -8.69909,-15.39661 -2.62155,-2.11175 -6.4625,-1.60095 -9.60956,-1.60339 l 27.00076,48 11.88272,19 -7.88348,9.28552 -20,18.88428 -67,72.83022 h -1 C 147.12774,753.56066 86.199914,642.44457 86.199914,517.52453 H 233.19991 v -10 H 86.199914 c 0,-95.28491 37.012236,-189.16028 96.199836,-263 13.92067,-17.36676 29.55245,-32.8866 45.80016,-48.02472 5.80998,-5.41321 14.24936,-15.45648 21.98534,-17.83868 6.33097,-1.94959 17.03993,17.44415 20.62577,21.8634 16.27601,20.05902 34.0644,38.54553 50.96451,58 4.03046,4.63965 17.07474,13.67053 17.23224,20 0.15479,6.2207 -11.27078,16.90509 -14.78241,22 -11.50546,16.69299 -25.35892,36.33014 -31.02545,56 12.70508,-0.01 13.95001,-10.09302 19.30865,-20 9.77894,-18.07916 21.73655,-34.3576 33.69135,-51 7.63766,2.95905 12.91843,10.15106 19,15.42438 14.60455,12.66345 28.92453,25.65277 44,37.7716 12.53058,10.07306 20.58597,17.80402 37,17.80402 v -1 l -28,-20.91974 -65,-56.08026 c 6.06125,-11.68396 18.30688,-21.51056 28,-30.16589 28.07098,-25.06568 59.85028,-45.40808 95,-59.02314 10.81891,-4.19067 21.80191,-7.63122 33,-10.65972 3.2113,-0.86847 9.23224,-3.42316 12.27234,-1.11963 3.18951,2.41681 4.17096,10.29882 5.39435,13.96838 3.95184,11.85339 8.41015,23.5174 13.3341,35 10.93482,25.49988 24.49317,49.65375 39.43439,73 6.98224,10.91003 17.52869,21.08728 22.56482,33 m 146,-124 c 59.8645,35.30505 109.71228,82.22552 144.28088,143 9.70838,17.06805 20.51355,35.96722 25.71912,55 h -1 c -30.67505,-65.62494 -112.43011,-112.95251 -184,-113 0,-21.30389 1.43787,-41.25049 6.62653,-62 1.87182,-7.48553 3.45013,-16.90015 8.37347,-23 m 164,158 -1,1 1,-1 m -647,21 v 250 h 61 v -42 c 0,-5.72644 -1.37427,-13.56726 0.6026,-19 4.33667,-11.91785 24.1478,-29.77924 34.3974,-37 4.85089,9.73828 13.42072,18.49243 20.19907,27 11.88607,14.91833 23.64175,29.96216 35.37655,45 5.44934,6.98315 13.11124,22.06506 21.51389,25.39661 5.98694,2.37378 15.52283,0.60339 21.91049,0.60339 h 49 l -25.34875,-34 -53.05094,-68 -21.17593,-27 -6.74768,-10.57562 7.32715,-9.42438 19.99615,-21 49.08951,-52 24.91049,-28 h -47 c -6.26215,0 -15.07568,-1.58087 -21,0.60339 -11.61343,4.28186 -22.33496,21.73047 -31,30.39661 -27.00302,27.00647 -51.98944,55.98969 -79,83 v -114 h -61 m 271,0 v 250 h 61 v -71 c 40.40906,0 85.71478,6.1778 122,-15.45294 50.28259,-29.97498 56.0686,-109.42658 7,-143.77619 -27.5484,-19.28479 -60.75879,-19.77087 -93,-19.77087 h -97 m 226,9 1,1 -1,-1 m -165,122 v -82 c 24.13342,0 57.78235,-6.01642 80,4.82098 26.57306,12.96192 28.29211,54.4029 3,69.69989 -22.55951,13.64429 -57.75195,7.47913 -83,7.47913 m 340,-1 c -0.0339,51.18268 -45.26617,95.07812 -95,99.8302 -22.60663,2.1601 -41.57837,-4.32788 -62,-12.8302 6.28693,-13.72473 21.5993,-26.69421 33,-36.24615 34.34528,-28.7757 78.28705,-50.62793 124,-50.75385 m -83,12 v 1 c -31.28754,13.02979 -61.44543,40.80231 -81,68 -9.74561,-3.11206 -21.69659,-14.26385 -25,-24 32.53503,-19.18726 68.9964,-36.51685 106,-45 m 71,50 c -4.88287,20.60516 -17.11298,41.17108 -29.62964,58 -36.99176,49.73621 -99.01727,87.47559 -162.37036,88 1.29364,-30.13367 10.74847,-61.4024 24.78088,-88 3.15979,-5.98914 9.60059,-22.38446 16.40357,-24.58179 4.57281,-1.47699 13.48877,5.09595 17.81555,6.77088 11.76782,4.55517 24.42438,6.76233 37,7.21679 28.81549,1.04132 56.21222,-10.45996 78,-28.84497 6.65363,-5.61444 11.52112,-12.89917 18,-18.56091 m -185,1 c 6.70917,9.63782 16.02783,18.76233 26,25 -3.71417,11.65625 -13.33942,21.91821 -18.74072,33 -12.82489,26.31281 -23.17774,57.43781 -23.25928,87 -28.99695,0 -57.42242,-6.11121 -84,-17.86188 -5.49866,-2.43109 -22.72321,-8.32757 -24.66901,-14.35107 -1.1148,-3.45105 3.48987,-7.46259 5.42212,-9.78705 6.2171,-7.479 12.41242,-15.07666 19.25074,-22 22.0531,-22.32727 44.35046,-44.08582 69.99615,-62.42126 8.90424,-6.36622 19.17761,-16.03675 30,-18.57874 m 184,38 c -16.14307,70.41516 -56.15967,139.07776 -107,190.00002 -14.5993,14.6228 -33.38013,37.4118 -53,45 -4.95148,-7.508 -8.76208,-15.7398 -12.28009,-24 -1.20557,-2.8307 -3.3042,-6.5434 -1.07636,-9.3905 7.96491,-10.1787 27.65491,-17.3859 38.35645,-25.037 22.63135,-16.18043 43.2041,-34.96968 61.83026,-55.57252 21.70404,-24.00732 40.08563,-51.27594 54.91126,-80 6.52081,-12.63385 9.86169,-29.7774 18.25848,-41 m -20,23 c -20.87006,53.79364 -63.17023,102.05396 -108,137.20984 -14.61432,11.46068 -32.94647,27.47958 -51,32.79018 -9.21582,-24.7177 -12,-50.83254 -12,-77.00002 49.77692,-0.005 100.19464,-24.00104 137,-56.28625 12.61212,-11.06324 21.67645,-25.77515 34,-36.71375 m -296,59 c 23.77985,15.68542 51.1665,25.55676 79,30.99927 8.46741,1.65564 17.36932,2.98633 26,3.00073 2.8053,0.005 7.97296,-0.9209 9.97223,1.60339 3.67602,4.64136 0.68579,17.57691 1.45215,23.39661 2.58612,19.63806 6.43487,38.12802 12.57562,57.00002 -47.74158,27.8655 -110.96997,42.4066 -166,37.1697 -12.91583,-1.2291 -26.54199,-0.9524 -39,-5.1697 8.6828,-37.874 28.03577,-75.10158 48.18903,-108.00002 8.21923,-13.41724 16.51556,-28.92328 27.81097,-40 m -88,155.00002 c -5.65009,27.3736 -12.98145,54.8376 -13,83 -65.30389,0 -128.83786,-17.672 -187,-46.7531 -26.01071,-13.0053 -53.88287,-29.0505 -75,-49.2469 18.93961,-27.6987 45.38412,-51.3842 69,-75.00002 5.86246,-5.86243 11.99533,-11.34082 18,-17.03857 2.07727,-1.97107 4.81369,-5.75464 7.99924,-5.75464 4.86941,0 10.88614,9.52795 13.91201,12.79321 11.29715,12.19073 23.10471,23.56995 36.08875,33.99932 37.63547,30.2302 82.42303,54.1806 130,64.0007 m 220,-30 c 3.3537,8.1745 7.10553,16.2228 11.30865,24 1.46564,2.7119 4.67511,6.5059 3.87421,9.8155 -1.08063,4.4657 -9.59283,8.3115 -13.18286,10.5973 -12.6839,8.0758 -25.54785,15.6142 -39,22.3402 -57.83411,28.9172 -121.08728,46.247 -186,46.247 0,-27.611 6.45435,-54.1323 12,-81 50.60419,9.8138 102.65839,7.3082 152,-8.0255 20.52655,-6.3789 39.27441,-15.762 59,-23.9745 z"
       id="path1" />
  </g>
</svg>
