<?xml version="1.0" encoding="UTF-8" standalone="no"?>
<!-- Created with Inkscape (http://www.inkscape.org/) -->

<svg
   version="1.1"
   id="svg1"
   width="1496"
   height="1496"
   viewBox="0 0 1496 1496"
   xmlns="http://www.w3.org/2000/svg"
   xmlns:svg="http://www.w3.org/2000/svg">
  <defs
     id="defs1" />
  <g
     id="g1">
    <path
       style="fill:#152542;stroke:none"
       d="m 296,422.22428 h 1.33333 c 7.72266,10.96314 18.75733,19.53931 27.88066,29.33334 19.77303,21.22656 39.65999,41.98608 58.61214,64 6.53862,7.59497 20.18836,29.65519 30.84054,30.51546 7.10803,0.57406 17.09883,-9.86938 22.66666,-13.62248 20.99069,-14.149 42.8346,-27.83178 62.66667,-43.55965 v -1.33333 l -74.54732,-80 -54.78601,-53.33334 c 12.703,-12.66796 28.12317,-23.5118 39.56172,-37.33333 19.47172,-23.52832 35.26876,-53.75806 50.91565,-80 8.17033,-13.70272 25.10299,-29.53597 22.45061,-46.66667 -1.41842,-9.16097 -8.06491,-14.7159 -13.88066,-21.33333 C 458.98324,156.68107 447.946,144.73486 436.93315,132.77165 426.743,121.70215 407.29744,92.80127 392,90.421875 c -24.27958,-3.776367 -42.58744,9.725585 -62.66667,21.135745 -24.92812,14.16553 -52.79295,26.69808 -76,43.51237 -13.43914,9.73714 -22.3847,25.37947 -36,34.75927 -10.54913,7.26742 -15.36729,-15.51741 -26.66768,-11.88997 -6.63273,2.12915 -12.19293,9.71956 -17.33232,14.18416 -16.13716,14.01831 -32.67411,31.09693 -46.46913,47.43417 -13.2228,15.6595 16.00699,20.66463 7.90741,33.33333 -8.01934,12.54321 -20.92312,21.71037 -30.08128,33.33333 -13.853294,17.58171 -24.922091,37.68889 -37.831275,56 -9.00411,12.77198 -23.308543,28.5 -20.380661,45.33334 3.214701,18.48234 26.520604,36.22038 38.735595,49.33333 12.870199,13.81633 25.429541,27.97599 38.786011,41.33333 5.79231,5.79265 11.89323,13.92123 20,16.46298 16.5175,5.17879 30.59155,-7.25432 44,-14.7181 37.0364,-20.61638 82.97555,-42.31779 108,-77.74488 M 810.66667,99.557618 c 29.90934,17.457032 62.18603,30.638672 92,48.411542 44.14754,26.31746 85.76538,55.27685 128.00003,84.4681 18.9901,13.1254 36.7748,28.21598 54.6666,42.77262 5.6952,4.63354 18.2769,10.81331 20.858,17.91252 2.1166,5.82129 -4.6008,13.57519 -7.0308,18.43522 -8.1478,16.29557 -15.3915,31.36759 -25.1893,46.66666 -6.7462,10.53394 9.1166,14.60816 1.9918,24 -18.6002,24.51848 -42.6761,45.79314 -63.9105,68 -5.7072,5.96851 -21.63722,20.19776 -21.16367,29.21298 0.35311,6.72233 14.84257,13.14819 19.77787,16.465 19.4454,13.06869 41.3891,34.33521 64,40.98869 17.0555,-24.96704 37.3095,-50.60856 58.6666,-72 5.3794,-5.38802 14.3457,-18.77588 21.7141,-20.87248 5.4981,-1.56445 9.7869,6.9301 15.5668,6.9301 6.4884,0 14.3582,-9.96712 18.7191,-14.10905 10.3593,-9.83911 23.7677,-15.72632 36,-23.14811 4.4573,-2.70443 11.7473,-9.73088 17.3334,-8.23877 5.7265,1.52962 11.5319,8.69832 16,12.44344 14.2494,11.94409 27.7331,24.87858 41.3333,37.54223 53.668,49.97225 98.6258,106.58676 143.7201,164.11931 9.7039,12.38069 19.101,25.49975 27.714,38.66666 5.7524,8.79387 12.1805,20.705 21.8992,25.33334 1.8659,-9.56608 -2.4882,-17.68498 -5.1409,-26.66667 -6.3552,-21.51815 -15.1467,-42.26904 -24.3817,-62.66667 -28.9152,-63.86604 -65.4085,-124.50805 -108.2767,-180 -15.8314,-20.4934 -31.9037,-44.35099 -51.534,-61.33333 v -1.33333 c 23.3691,-17.8169 -10.9067,-37.02889 -26.6667,-48 v -1.33334 c 4.5397,-3.19824 13.7378,-9.41227 12.3313,-16 -1.3975,-6.54589 -10.2021,-11.55265 -14.9979,-15.48559 -12.552,-10.2937 -24.8208,-20.94377 -37.3334,-31.28809 -4.335,-3.58382 -11.2356,-11.21818 -17.3282,-11.06478 -6.307,0.15878 -11.5358,9.2522 -14.6718,13.83846 H 1204 c -6.0526,-6.99633 -23.335,-27.2889 -33.3138,-26.06477 -6.2356,0.76497 -11.4177,9.36954 -14.6862,14.06477 -75.4161,-54.7893 -168.5096,-93.21818 -257.33333,-119.73046 -20.99349,-6.26612 -42.64087,-9.69401 -64,-14.370284 -7.87362,-1.723796 -19.38428,-4.936524 -24,3.434082 m -64,258.270592 C 727.70614,364.01912 708.32153,382.30762 692,393.64404 658.85779,416.66366 625.34989,439.23657 592,461.96501 472.40804,543.46859 355.49988,628.76082 237.33333,712.32511 198.63676,739.69035 159.65699,767.52873 120,793.45679 c -8.87792,5.80444 -38.263234,20.13493 -39.378601,31.41976 -1.002152,10.13932 25.601101,23.3291 32.711931,28.78702 35.8628,27.52653 74.34086,51.54297 110.66667,78.39714 39.98051,29.55591 82.37278,55.7238 122.66667,84.84569 91.85599,66.3877 182.9143,134.2761 276,198.9249 32.18412,22.3521 63.14607,46.6168 96,68.0123 8.93961,5.8218 24.51489,22.4394 36,18.7706 16.19466,-5.1733 32.59627,-22.546 46.66666,-32.1306 41.00407,-27.9319 80.31836,-57.8669 120,-87.6255 C 1034.7222,1097.8236 1152.2823,1018.8045 1268,937.08333 c 38.7658,-27.37695 78.7339,-52.95003 117.3333,-80.57926 8.5676,-6.13257 36.9383,-19.88761 36.9383,-31.59871 0,-10.32553 -25.3847,-23.34245 -32.9383,-29.02987 C 1353.7125,769.05453 1316.3125,744.31592 1280,718.4126 1148.5328,624.63135 1014.8211,533.93677 881.33333,443.0988 848.8134,420.96908 816.30355,398.78695 784,376.33952 774.8658,369.99227 758.53882,353.95174 746.66667,357.82821 M 176,826.22428 c 13.49733,-16.57877 38.4177,-29.16862 56,-41.36629 30.67485,-21.28052 60.15554,-44.36767 90.66667,-65.88582 96.02726,-67.7238 190.10559,-138.11312 288,-203.19336 34.1359,-22.69352 68.35612,-45.32113 102.66666,-67.76237 8.903,-5.82308 27.66219,-23.65096 38.66667,-22.16146 8.24764,1.11637 18.51628,10.8641 25.33333,15.49479 19.17847,13.02751 38.02743,26.61068 57.33334,39.44035 75.34318,50.06901 149.24633,102.22925 224.00003,153.17489 68.1373,46.43652 135.8388,93.67163 202.6666,141.98356 16.0338,11.59131 32.0179,23.27506 48.0011,34.927 3.9427,2.87427 15.1512,8.58748 15.1512,14.18921 0,5.71403 -11.1579,10.70231 -15.1523,13.54736 -15.8451,11.28581 -32.0673,22.03801 -48,33.21501 -65.6325,46.04224 -128.6832,95.5345 -194.6666,141.09775 -76.61502,52.9047 -150.68013,109.4088 -226.6667,163.1986 -20.51554,14.5226 -40.72477,29.4086 -61.33333,43.8076 -6.83138,4.773 -18.2155,15.4394 -26.66667,16.1019 -11.20109,0.8779 -29.72762,-18.3179 -38.66667,-24.5083 -35.88094,-24.8481 -71.02506,-50.7448 -106.66666,-75.9197 C 505.6571,1064.2581 404.85604,992.26335 305.33848,918.87655 263.09448,887.72477 215.8775,860.23438 176,826.22428 M 693.33333,499.55762 c -11.56189,11.93506 -28.89729,20.65316 -42.66666,30.00618 -30.73621,20.87801 -61.55677,41.64226 -92,62.9537 C 448.84253,669.39852 335.5436,743.0297 229.33333,824.89095 v 1.33333 L 328,897.09774 546.66667,1054.4126 652,1129.8508 l 45.33333,31.0402 c -3.02384,-10.7606 -4.64689,-20.9043 -2.77262,-32 10.40649,-61.606 97.80867,-61.7912 112.49894,-2.6667 2.896,11.6555 0.49178,23.5791 -3.05965,34.6667 12.53516,-2.9789 25.74072,-15.9494 36,-23.6915 21.42952,-16.1713 43.49105,-31.649 65.3138,-47.2807 83.18433,-59.5851 165.0758,-121.23415 249.3529,-179.23976 28.0306,-19.29273 54.8278,-40.32658 82.6666,-59.87045 10.6561,-7.48095 28.8103,-15.33601 34.6667,-27.25097 L 965.33333,610.19027 864,540.31071 804,499.55762 c 1.32365,13.29533 6.77881,25.17244 2.0813,38.66666 -14.44653,41.49943 -67.88273,59.5494 -98.58952,22.64714 C 691.184,541.27336 694.14624,522.84847 696,499.55762 h -2.66667 M 736,637.27165 c 32.90332,-3.88233 70.13428,0.8973 102.66667,5.91976 80.1455,12.37312 160.96785,34.11897 222.66663,89.92586 11.8236,10.69442 21.9514,23.30094 29.8941,37.10701 6.2319,10.83261 10.8872,22.48348 13.64,34.66667 20.2406,89.58138 -70.9597,153.79004 -143.53407,180.90739 -43.76041,16.35106 -88.23291,27.86416 -134.66666,33.37856 -115.6486,13.7344 -253.46477,0.095 -352,-67.47011 -18.10144,-12.41211 -34.7581,-27.18758 -48.71501,-44.14917 -8.85136,-10.75684 -15.79545,-23.1954 -21.18416,-36 C 363.86064,774.35531 467.4141,699.74251 546.66667,670.94954 609.13208,648.25545 671.0557,644.93449 736,637.27165 M 560,846.22428 h 46.66667 v 69.33334 H 656 V 744.89095 h -49.33333 v 44 c 0,4.6709 1.50736,12.88355 -2.13786,16.52881 -6.88013,6.88013 -35.05253,2.13786 -44.52881,2.13786 v -44 c 0,-4.43742 1.56673,-12.82048 -1.37036,-16.52881 -4.7714,-6.02441 -29.97184,-2.18734 -37.29631,-2.1368 -3.35461,0.0231 -8.09586,-0.50008 -9.86214,3.08944 -5.34338,10.85913 -0.80452,34.13875 -0.80452,46.24283 0,37.71696 -3.29684,77.09701 0.0782,114.64608 1.15043,12.7994 25.47807,7.28198 34.5885,7.90129 4.14453,0.28165 10.43457,1.01513 13.09465,-2.97119 C 561.6757,908.93343 560,899.7972 560,894.22428 v -48 M 697.33333,744.89095 v 170.66667 c 11.24935,2.08838 24.52019,1.59098 36,1.26546 3.80827,-0.10807 9.47714,0.35767 11.96298,-3.19141 3.18017,-4.54036 1.37036,-14.12166 1.37036,-19.40739 0,-17.29679 -3.07626,-33.14192 9.33333,-46.66666 l 22.66667,49.33333 11.91772,18.85596 L 840,916.89095 c 0.92928,-8.07169 -5.82845,-16.89225 -9.47738,-24 -9.61995,-18.73877 -19.41585,-37.6569 -29.75512,-56 -3.52653,-6.25643 -12.85035,-18.0498 -12.43628,-25.33333 0.34619,-6.09066 8.31705,-12.68026 11.80867,-17.33334 C 811.33268,779.30827 830.29842,762.74691 836,744.89095 l -50.54215,0.80453 -11.86524,13.86214 -25.59261,40 -1.33333,-37.33334 -1.37036,-15.19547 L 732,744.89095 h -34.66667 m 214.66667,84 h 1.33333 c 8.80363,21.03418 23.22339,40.07829 34.26026,60 4.25651,7.68303 10.16268,21.95939 17.98665,26.42798 9.54679,5.45255 30.16276,0.23869 41.08646,0.23869 v -120 c 0,-12.43034 4.68,-36.43018 -0.8046,-47.57617 -2.7774,-5.64437 -38.28015,-5.64445 -41.05758,0 C 961.87467,753.93563 964,765.02246 964,771.55762 v 57.33333 c -11.85547,-16.65275 -21.45076,-35.66951 -31.81478,-53.33333 -4.54883,-7.75277 -12.16772,-26.2203 -20.58642,-29.86214 -6.35458,-2.74895 -16.7653,-0.80453 -23.5988,-0.80453 -4.20785,0 -15.5507,-1.99609 -18.20166,2.13786 -4.85636,7.57308 -0.46501,31.33105 -0.46501,40.52881 v 88 c 0,10.39005 -3.50341,27.48437 -0.22428,37.13582 2.9161,8.58285 24.26009,3.32878 30.89095,3.00204 3.04736,-0.15015 8.2876,1.32698 10.62964,-1.24691 C 916.44263,908.0599 912,881.45443 912,872.89095 v -44 M 450.66667,1127.5576 c -18.48979,-13.2817 -36.94536,-26.7683 -56,-39.2325 -5.10824,-3.3414 -13.62435,-12.8337 -20,-12.5443 -5.96424,0.2708 -12.12606,9.2362 -16,13.1102 -12.66272,12.6627 -25.84066,24.802 -38.66667,37.3138 -42.7464,41.6989 -85.74581,83.0823 -128,125.3528 -14.43876,14.4444 -42.64617,36.0071 -44.92799,57.3334 -2.70139,25.2476 39.35353,66.8548 64.92799,57.8497 9.13424,-3.2162 15.61884,-11.2556 22.66667,-17.4691 17.47269,-15.4043 34.19421,-31.9082 50.66666,-48.3806 l 69.33334,-69.3334 c 23.79773,-23.7992 46.98567,-48.3852 69.55969,-73.3333 8.77059,-9.693 20.84847,-18.6585 26.44031,-30.6667 m 598.66663,-1.3333 c 2.4532,12.0578 17.0775,21.7379 24.9527,30.6667 23.2877,26.4031 48.8156,51.1015 73.714,76 l 68,68 c 16.2584,16.2583 32.1844,32.9082 49.3333,48.2211 7.166,6.3988 14.6457,14.5077 24,17.6276 27.5859,9.2006 67.792,-35.7355 63.715,-61.8487 -2.9662,-18.9987 -30.8641,-40.1397 -43.7345,-53.3334 -41.7,-42.7471 -85.4301,-83.4822 -127.9805,-125.3374 -12.7737,-12.5651 -25.9974,-24.6601 -38.6666,-37.3292 -4.0782,-4.0782 -9.9245,-12.5635 -16,-13.4589 -6.9803,-1.0288 -17.3749,9.3002 -22.6667,13.071 -17.8505,12.7199 -35.616,26.8795 -54.6667,37.7212 z"
       id="path1" />
  </g>
</svg>
